<?xml version="1.0" encoding="utf-8"?>
<!-- Generator: Adobe Illustrator 19.2.1, SVG Export Plug-In . SVG Version: 6.00 Build 0)  -->
<svg version="1.1" id="Layer_1" xmlns="http://www.w3.org/2000/svg" xmlns:xlink="http://www.w3.org/1999/xlink" x="0px" y="0px"
	 viewBox="0 0 203.8 201.3" style="enable-background:new 0 0 203.8 201.3;" xml:space="preserve">
<style type="text/css">
	.st0{fill:none;}
	.st1{fill:#628BC8;}
	.st2{fill:#4C7BBC;}
	.st3{fill:#9BBFE2;}
	.st4{fill:#3B64AC;}
	.st5{fill:#1E447D;}
	.st6{fill:none;stroke:#83BAD8;stroke-miterlimit:10;}
	.st7{enable-background:new    ;}
	.st8{fill:#EEF9FE;}
	.st9{fill:#2F568F;}
</style>
<g>
	<polygon class="st0" points="151.6,130.2 101.2,42.9 50.7,130.7 	"/>
	<polygon class="st0" points="201.3,100.9 201.4,100.9 151.3,72.3 	"/>
	<path class="st0" d="M201.4,100.9v7c0.1-2.2,0.2-4.5,0.2-6.7c0-2.3-0.1-4.5-0.3-6.7L201.4,100.9z"/>
	<path class="st0" d="M146.8,190.5c3.2-1.6,6.4-3.5,9.4-5.4l-4.9,2.8L146.8,190.5z"/>
	<polygon class="st0" points="14.9,151.2 50.7,130.7 50.7,130.7 	"/>
	<path class="st1" d="M101.3,1.2C83.4,1.3,66.6,6,52.1,14.3l49.2,28.6V1.2z"/>
	<path class="st2" d="M101.2,42.9L52.1,14.3c-0.3,0.2-0.6,0.3-0.9,0.5L50.9,72L101.2,42.9z"/>
	<path class="st1" d="M51.2,14.9c-15,8.8-27.5,21.4-36.2,36.4L50.9,72L51.2,14.9z"/>
	<path class="st3" d="M15,51.3C6.7,65.6,1.8,82.2,1.6,99.9L50.9,72L15,51.3z"/>
	<polygon class="st2" points="101.2,159.2 151.3,187.9 151.6,130.2 151.6,130.2 	"/>
	<path class="st1" d="M101.2,159.2l0.1,42.1c0.1,0,0.2,0,0.3,0c16.3,0,31.6-3.9,45.2-10.8l4.5-2.6L101.2,159.2z"/>
	<polygon class="st4" points="151.6,130.2 151.6,130.2 201.3,100.9 151.3,72.3 	"/>
	<path class="st4" d="M151.6,130.2L151.6,130.2L151.6,130.2z"/>
	<path class="st4" d="M151.6,130.2L151.6,130.2L151.6,130.2z"/>
	<path class="st3" d="M201.3,100.9l-49.7,29.2l36.6,21.1c7.5-12.9,12.1-27.6,13.2-43.4L201.3,100.9L201.3,100.9z"/>
	<path class="st4" d="M150.5,13.9C136,5.8,119.4,1.2,101.6,1.2c-0.1,0-0.2,0-0.3,0l-0.1,41.7L150.5,13.9z"/>
	<path class="st1" d="M1.6,101c0,0.1,0,0.2,0,0.3c0,18.2,4.9,35.2,13.3,49.9l35.8-20.5L1.6,101z"/>
	<path class="st4" d="M14.9,151.2c8.5,14.8,20.7,27.2,35.4,36l0.4-56.5L14.9,151.2z"/>
	<path class="st5" d="M50.7,130.7l-0.4,56.5c0.2,0.1,0.4,0.2,0.6,0.3l50.3-28.2L50.7,130.7z"/>
	<path class="st4" d="M50.9,187.5c14.8,8.7,32,13.8,50.4,13.8l-0.1-42.1L50.9,187.5z"/>
	<path class="st1" d="M151.6,130.2L151.6,130.2l-0.3,57.7l4.9-2.8c13.1-8.6,24.1-20.1,32-33.8L151.6,130.2L151.6,130.2z"/>
	<path class="st1" d="M101.2,42.9l50.4,87.2l0,0l-0.3-57.8l50.1,28.6v-6.4c-1.1-15.8-5.7-30.5-13.3-43.4l-36.9,21.3L101.2,42.9z"/>
	<path class="st5" d="M151.3,72.3L150.7,14c-0.1,0-0.1-0.1-0.2-0.1l-49.2,29L151.3,72.3z"/>
	<path class="st4" d="M188.2,51.1c-9-15.4-21.9-28.2-37.5-37l0.6,58.3L188.2,51.1z"/>
	<path class="st4" d="M50.7,130.7L50.9,72L1.6,99.9c0,0.3,0,0.7,0,1L50.7,130.7L50.7,130.7z"/>
	<polygon class="st1" points="50.9,72 50.7,130.7 101.2,42.9 	"/>
	<polygon class="st1" points="50.7,130.7 101.2,159.2 151.6,130.2 151.6,130.2 151.6,130.2 	"/>
</g>
<path class="st1" d="M134.5,81.8"/>
<polygon class="st1" points="101.2,42.9 134.5,75.6 151.6,130.2 98.7,138.1 50.7,130.7 62.5,84.5 "/>
<g>
	
		<image style="overflow:visible;opacity:0.41;enable-background:new    ;" width="546" height="613" xlink:href="3E5C9EB362DFB825.png"  transform="matrix(0.2382 0 0 0.2369 36.3107 28.8104)">
	</image>
	<g>
		<path class="st1" d="M97.9,163.5l-48.7-28.1c-2.1-1.2-3.4-3.5-3.4-5.9V73.2c0-2.4,1.3-4.7,3.4-5.9l48.7-28.1
			c2.1-1.2,4.7-1.2,6.8,0l48.7,28.1c2.1,1.2,3.4,3.5,3.4,5.9v56.3c0,2.4-1.3,4.7-3.4,5.9l-48.7,28.1
			C102.6,164.8,100,164.8,97.9,163.5z"/>
		<path class="st6" d="M97.9,163.5l-48.7-28.1c-2.1-1.2-3.4-3.5-3.4-5.9V73.2c0-2.4,1.3-4.7,3.4-5.9l48.7-28.1
			c2.1-1.2,4.7-1.2,6.8,0l48.7,28.1c2.1,1.2,3.4,3.5,3.4,5.9v56.3c0,2.4-1.3,4.7-3.4,5.9l-48.7,28.1
			C102.6,164.8,100,164.8,97.9,163.5z"/>
	</g>
</g>
<g>
	
		<image style="overflow:visible;opacity:0.41;enable-background:new    ;" width="346" height="488" xlink:href="3E5C9EB362DFB824.png"  transform="matrix(0.2365 0 0 0.2385 59.9004 50.2617)">
	</image>
	<g>
		<g class="st7">
			<g>
				<path class="st8" d="M90.3,136.3L70.9,70.6h17.2L101,123l11.6-52.4h17l-18.1,65.7H90.3z"/>
			</g>
		</g>
		<g class="st7">
			<g>
				<path class="st9" d="M111.8,136.8H89.9L70.2,70.1h18.3l12.4,50.7l11.2-50.7h18l-0.2,0.6L111.8,136.8z M90.7,135.8h20.4
					l17.8-64.7H113l-12,54.1L87.7,71.1H71.6L90.7,135.8z"/>
			</g>
		</g>
	</g>
</g>
</svg>
